<mxfile host="Electron" modified="2023-04-10T14:01:05.240Z" agent="Mozilla/5.0 (Macintosh; Intel Mac OS X 10_15_7) AppleWebKit/537.36 (KHTML, like Gecko) draw.io/21.1.2 Chrome/106.0.5249.199 Electron/21.4.3 Safari/537.36" etag="lNRZPvHDOqemM01Io1jH" version="21.1.2" type="device">
  <diagram name="第 1 页" id="vk8Yd_evJkKHrald-KEF">
    <mxGraphModel dx="1180" dy="863" grid="1" gridSize="10" guides="1" tooltips="1" connect="1" arrows="1" fold="1" page="1" pageScale="1" pageWidth="827" pageHeight="1169" math="0" shadow="0">
      <root>
        <mxCell id="0" />
        <mxCell id="1" parent="0" />
        <mxCell id="89qmbddOJPijke5XTXkt-5" value="" style="edgeStyle=orthogonalEdgeStyle;rounded=0;orthogonalLoop=1;jettySize=auto;html=1;" edge="1" parent="1" source="89qmbddOJPijke5XTXkt-3" target="89qmbddOJPijke5XTXkt-4">
          <mxGeometry relative="1" as="geometry" />
        </mxCell>
        <mxCell id="89qmbddOJPijke5XTXkt-3" value="升级" style="ellipse;whiteSpace=wrap;html=1;aspect=fixed;" vertex="1" parent="1">
          <mxGeometry x="360" y="170" width="80" height="80" as="geometry" />
        </mxCell>
        <mxCell id="89qmbddOJPijke5XTXkt-7" value="" style="edgeStyle=orthogonalEdgeStyle;rounded=0;orthogonalLoop=1;jettySize=auto;html=1;" edge="1" parent="1" source="89qmbddOJPijke5XTXkt-4" target="89qmbddOJPijke5XTXkt-6">
          <mxGeometry relative="1" as="geometry" />
        </mxCell>
        <mxCell id="89qmbddOJPijke5XTXkt-19" value="是" style="edgeLabel;html=1;align=center;verticalAlign=middle;resizable=0;points=[];" vertex="1" connectable="0" parent="89qmbddOJPijke5XTXkt-7">
          <mxGeometry x="0.0154" y="-2" relative="1" as="geometry">
            <mxPoint as="offset" />
          </mxGeometry>
        </mxCell>
        <mxCell id="89qmbddOJPijke5XTXkt-9" value="" style="edgeStyle=orthogonalEdgeStyle;rounded=0;orthogonalLoop=1;jettySize=auto;html=1;" edge="1" parent="1" source="89qmbddOJPijke5XTXkt-4" target="89qmbddOJPijke5XTXkt-8">
          <mxGeometry relative="1" as="geometry" />
        </mxCell>
        <mxCell id="89qmbddOJPijke5XTXkt-20" value="否" style="edgeLabel;html=1;align=center;verticalAlign=middle;resizable=0;points=[];" vertex="1" connectable="0" parent="89qmbddOJPijke5XTXkt-9">
          <mxGeometry x="-0.175" relative="1" as="geometry">
            <mxPoint as="offset" />
          </mxGeometry>
        </mxCell>
        <mxCell id="89qmbddOJPijke5XTXkt-4" value="是否gensis 块" style="rhombus;whiteSpace=wrap;html=1;" vertex="1" parent="1">
          <mxGeometry x="345" y="330" width="110" height="90" as="geometry" />
        </mxCell>
        <mxCell id="89qmbddOJPijke5XTXkt-6" value="写死在代码&lt;br&gt;on_chain_config/gas_schedule.rs" style="whiteSpace=wrap;html=1;" vertex="1" parent="1">
          <mxGeometry x="70" y="342.5" width="210" height="65" as="geometry" />
        </mxCell>
        <mxCell id="89qmbddOJPijke5XTXkt-11" value="" style="edgeStyle=orthogonalEdgeStyle;rounded=0;orthogonalLoop=1;jettySize=auto;html=1;" edge="1" parent="1" source="89qmbddOJPijke5XTXkt-8" target="89qmbddOJPijke5XTXkt-10">
          <mxGeometry relative="1" as="geometry" />
        </mxCell>
        <mxCell id="89qmbddOJPijke5XTXkt-12" value="小于10" style="edgeLabel;html=1;align=center;verticalAlign=middle;resizable=0;points=[];" vertex="1" connectable="0" parent="89qmbddOJPijke5XTXkt-11">
          <mxGeometry x="-0.04" y="-1" relative="1" as="geometry">
            <mxPoint as="offset" />
          </mxGeometry>
        </mxCell>
        <mxCell id="89qmbddOJPijke5XTXkt-14" value="" style="edgeStyle=orthogonalEdgeStyle;rounded=0;orthogonalLoop=1;jettySize=auto;html=1;" edge="1" parent="1" source="89qmbddOJPijke5XTXkt-8" target="89qmbddOJPijke5XTXkt-13">
          <mxGeometry relative="1" as="geometry" />
        </mxCell>
        <mxCell id="89qmbddOJPijke5XTXkt-15" value="大约等于10小于12" style="edgeLabel;html=1;align=center;verticalAlign=middle;resizable=0;points=[];" vertex="1" connectable="0" parent="89qmbddOJPijke5XTXkt-14">
          <mxGeometry x="-0.1895" relative="1" as="geometry">
            <mxPoint y="1" as="offset" />
          </mxGeometry>
        </mxCell>
        <mxCell id="89qmbddOJPijke5XTXkt-17" value="" style="edgeStyle=orthogonalEdgeStyle;rounded=0;orthogonalLoop=1;jettySize=auto;html=1;" edge="1" parent="1" source="89qmbddOJPijke5XTXkt-8" target="89qmbddOJPijke5XTXkt-16">
          <mxGeometry relative="1" as="geometry" />
        </mxCell>
        <mxCell id="89qmbddOJPijke5XTXkt-18" value="大约等于12" style="edgeLabel;html=1;align=center;verticalAlign=middle;resizable=0;points=[];" vertex="1" connectable="0" parent="89qmbddOJPijke5XTXkt-17">
          <mxGeometry x="-0.1077" y="2" relative="1" as="geometry">
            <mxPoint x="1" as="offset" />
          </mxGeometry>
        </mxCell>
        <mxCell id="89qmbddOJPijke5XTXkt-8" value="判断stdlib version版本号" style="rhombus;whiteSpace=wrap;html=1;" vertex="1" parent="1">
          <mxGeometry x="322.5" y="500" width="155" height="100" as="geometry" />
        </mxCell>
        <mxCell id="89qmbddOJPijke5XTXkt-10" value="从 storage 中读出" style="whiteSpace=wrap;html=1;" vertex="1" parent="1">
          <mxGeometry x="70" y="520" width="120" height="60" as="geometry" />
        </mxCell>
        <mxCell id="89qmbddOJPijke5XTXkt-13" value="从 storage的stdlib.blob 中读" style="whiteSpace=wrap;html=1;" vertex="1" parent="1">
          <mxGeometry x="340" y="685" width="120" height="60" as="geometry" />
        </mxCell>
        <mxCell id="89qmbddOJPijke5XTXkt-16" value="从 storage的stdlib.blob 中读" style="whiteSpace=wrap;html=1;" vertex="1" parent="1">
          <mxGeometry x="575" y="520" width="120" height="60" as="geometry" />
        </mxCell>
      </root>
    </mxGraphModel>
  </diagram>
</mxfile>
